<svg width="32" height="32" viewBox="0 0 32 32" fill="none" xmlns="http://www.w3.org/2000/svg">
<rect width="32" height="32" rx="16" fill="white"/>
<path d="M9.96967 20.9697C9.67678 21.2626 9.67678 21.7374 9.96967 22.0303C10.2626 22.3232 10.7374 22.3232 11.0303 22.0303L9.96967 20.9697ZM22.25 10.5C22.25 10.0858 21.9142 9.75 21.5 9.75L14.75 9.75C14.3358 9.75 14 10.0858 14 10.5C14 10.9142 14.3358 11.25 14.75 11.25H20.75V17.25C20.75 17.6642 21.0858 18 21.5 18C21.9142 18 22.25 17.6642 22.25 17.25L22.25 10.5ZM11.0303 22.0303L22.0303 11.0303L20.9697 9.96967L9.96967 20.9697L11.0303 22.0303Z" fill="#04B794"/>
</svg>
