<svg width="26" height="26" viewBox="0 0 26 26" fill="none" xmlns="http://www.w3.org/2000/svg">
<path d="M22.4006 3.25H3.59937C3.29123 3.25 2.9957 3.37241 2.77781 3.59031C2.55991 3.8082 2.4375 4.10373 2.4375 4.41187V23.2131C2.4375 23.5213 2.55991 23.8168 2.77781 24.0347C2.9957 24.2526 3.29123 24.375 3.59937 24.375H13.7183V16.1891H10.972V13.0203H13.7183V10.6437C13.6614 10.0858 13.7272 9.52215 13.9112 8.99234C14.0953 8.46254 14.3929 7.97941 14.7834 7.57683C15.1739 7.17426 15.6478 6.862 16.1717 6.66194C16.6957 6.46188 17.2571 6.37888 17.8165 6.41875C18.6386 6.41369 19.4603 6.45601 20.2776 6.5455V9.39738H18.5981C17.2672 9.39738 17.0138 10.0311 17.0138 10.9501V12.9886H20.1825L19.7706 16.1574H17.0138V24.375H22.4006C22.5532 24.375 22.7043 24.3449 22.8453 24.2866C22.9862 24.2282 23.1143 24.1426 23.2222 24.0347C23.3301 23.9268 23.4157 23.7987 23.4741 23.6578C23.5324 23.5168 23.5625 23.3657 23.5625 23.2131V4.41187C23.5625 4.2593 23.5324 4.10821 23.4741 3.96724C23.4157 3.82628 23.3301 3.6982 23.2222 3.59031C23.1143 3.48242 22.9862 3.39683 22.8453 3.33844C22.7043 3.28005 22.5532 3.25 22.4006 3.25Z" fill="#DEECFF"/>
</svg>
