<svg width="26" height="26" viewBox="0 0 26 26" fill="none" xmlns="http://www.w3.org/2000/svg">
<path d="M14.0858 3.25135C14.8566 3.24828 15.6273 3.25632 16.3978 3.27548L16.6028 3.28316C16.8393 3.29193 17.0728 3.3029 17.3548 3.31606C18.4786 3.3709 19.2454 3.55517 19.9181 3.82609C20.6152 4.10469 21.2025 4.482 21.7897 5.09184C22.3267 5.63983 22.7422 6.30269 23.0075 7.03434C23.2684 7.73303 23.4458 8.53043 23.4987 9.69746C23.5113 9.98922 23.5219 10.2327 23.5303 10.4784L23.5367 10.6912C23.5554 11.491 23.5635 12.291 23.561 13.0911L23.562 13.9093V15.3462C23.5646 16.1466 23.5565 16.947 23.5377 17.7472L23.5314 17.9599C23.5229 18.2056 23.5124 18.448 23.4997 18.7409C23.4469 19.9079 23.2673 20.7042 23.0075 21.4029C22.7431 22.1353 22.3274 22.7987 21.7897 23.3465C21.2616 23.9041 20.623 24.3356 19.9181 24.6112C19.2454 24.8821 18.4786 25.0664 17.3548 25.1212C17.0728 25.1344 16.8393 25.1453 16.6028 25.1541L16.3978 25.1607C15.6273 25.1802 14.8566 25.1886 14.0858 25.1859L13.2979 25.187H11.9154C11.1446 25.1897 10.3739 25.1813 9.60334 25.1618L9.39844 25.1552C9.14771 25.1458 8.89703 25.1348 8.64643 25.1223C7.52264 25.0675 6.75584 24.881 6.08198 24.6112C5.37717 24.3362 4.73875 23.9046 4.21146 23.3465C3.67391 22.7984 3.25795 22.1351 2.99261 21.4029C2.73173 20.7042 2.55429 19.9079 2.50148 18.7409C2.48972 18.4806 2.47916 18.2203 2.4698 17.9599L2.46451 17.7472C2.44504 16.947 2.43624 16.1466 2.43811 15.3462V13.0911C2.43516 12.291 2.44291 11.491 2.46135 10.6912L2.46874 10.4784C2.47719 10.2327 2.48775 9.98922 2.50042 9.69746C2.55323 8.52933 2.73068 7.73413 2.99156 7.03434C3.25705 6.30234 3.67382 5.63965 4.21252 5.09294C4.73945 4.53438 5.37746 4.10203 6.08198 3.82609C6.75584 3.55517 7.52158 3.3709 8.64643 3.31606L9.39844 3.28316L9.60334 3.27767C10.3735 3.25746 11.1439 3.24832 11.9143 3.25025L14.0858 3.25135ZM13.0001 8.73554C12.3003 8.72526 11.6056 8.85951 10.9563 9.13047C10.307 9.40144 9.71598 9.80373 9.21767 10.3139C8.71935 10.8242 8.32365 11.4322 8.05357 12.1026C7.78349 12.773 7.64441 13.4925 7.64441 14.2192C7.64441 14.9459 7.78349 15.6654 8.05357 16.3358C8.32365 17.0062 8.71935 17.6142 9.21767 18.1244C9.71598 18.6346 10.307 19.0369 10.9563 19.3079C11.6056 19.5788 12.3003 19.7131 13.0001 19.7028C14.4007 19.7028 15.7439 19.125 16.7343 18.0965C17.7247 17.0681 18.281 15.6731 18.281 14.2186C18.281 12.7641 17.7247 11.3692 16.7343 10.3407C15.7439 9.31224 14.4007 8.73554 13.0001 8.73554ZM13.0001 10.9292C13.421 10.9212 13.8392 11.0003 14.2303 11.162C14.6214 11.3237 14.9776 11.5647 15.278 11.8709C15.5785 12.1771 15.8171 12.5425 15.9801 12.9456C16.143 13.3487 16.227 13.7814 16.227 14.2186C16.2271 14.6558 16.1433 15.0886 15.9805 15.4917C15.8177 15.8949 15.5791 16.2603 15.2788 16.5667C14.9785 16.873 14.6224 17.1141 14.2313 17.276C13.8402 17.4378 13.422 17.5171 13.0011 17.5091C12.1608 17.5091 11.3548 17.1625 10.7606 16.5454C10.1664 15.9283 9.83254 15.0913 9.83254 14.2186C9.83254 13.3459 10.1664 12.509 10.7606 11.8919C11.3548 11.2748 12.1608 10.9281 13.0011 10.9281L13.0001 10.9292ZM18.5451 7.09028C18.2044 7.10444 17.8821 7.25497 17.6459 7.51034C17.4096 7.76571 17.2776 8.1061 17.2776 8.46023C17.2776 8.81436 17.4096 9.15476 17.6459 9.41012C17.8821 9.66549 18.2044 9.81602 18.5451 9.83018C18.8952 9.83018 19.2311 9.68573 19.4787 9.42861C19.7262 9.17149 19.8653 8.82276 19.8653 8.45914C19.8653 8.09551 19.7262 7.74678 19.4787 7.48966C19.2311 7.23254 18.8952 7.08809 18.5451 7.08809V7.09028Z" fill="#DEECFF"/>
</svg>
