<svg width="26" height="26" viewBox="0 0 26 26" fill="none" xmlns="http://www.w3.org/2000/svg">
<path fill-rule="evenodd" clip-rule="evenodd" d="M2.4375 5.75952C2.4375 5.30944 2.62344 4.8778 2.95443 4.55955C3.28541 4.24129 3.73432 4.0625 4.2024 4.0625H21.7957C22.0276 4.06214 22.2574 4.10577 22.4718 4.1909C22.6862 4.27603 22.8811 4.40099 23.0452 4.55862C23.2093 4.71625 23.3395 4.90346 23.4282 5.10953C23.517 5.3156 23.5626 5.53647 23.5625 5.75952V22.6761C23.5627 22.8992 23.5173 23.1202 23.4286 23.3263C23.34 23.5325 23.2099 23.7198 23.0459 23.8776C22.8819 24.0354 22.6871 24.1606 22.4728 24.2459C22.2584 24.3313 22.0287 24.3751 21.7966 24.375H4.2024C3.97055 24.375 3.74097 24.3311 3.52678 24.2457C3.31259 24.1604 3.11799 24.0353 2.95409 23.8776C2.79019 23.7199 2.66021 23.5328 2.57157 23.3268C2.48293 23.1208 2.43737 22.9 2.4375 22.6771V5.75952ZM10.7992 11.8071H13.6597V13.1884C14.0726 12.3943 15.1288 11.6797 16.7161 11.6797C19.759 11.6797 20.4802 13.2613 20.4802 16.1632V21.5386H17.4007V16.8243C17.4007 15.1716 16.9878 14.2391 15.9393 14.2391C14.4845 14.2391 13.8796 15.2445 13.8796 16.8243V21.5386H10.7992V11.8071ZM5.51791 21.4121H8.59832V11.6797H5.51791V21.4121ZM9.03906 8.5054C9.04487 8.759 8.99794 9.01117 8.90102 9.2471C8.8041 9.48302 8.65915 9.69796 8.47467 9.87929C8.29019 10.0606 8.0699 10.2047 7.82673 10.3031C7.58356 10.4014 7.32241 10.4521 7.05859 10.4521C6.79478 10.4521 6.53363 10.4014 6.29046 10.3031C6.04728 10.2047 5.82699 10.0606 5.64252 9.87929C5.45804 9.69796 5.31309 9.48302 5.21617 9.2471C5.11925 9.01117 5.07232 8.759 5.07812 8.5054C5.08953 8.00761 5.30319 7.5339 5.67336 7.18572C6.04352 6.83754 6.54077 6.64258 7.05859 6.64258C7.57642 6.64258 8.07366 6.83754 8.44383 7.18572C8.814 7.5339 9.02766 8.00761 9.03906 8.5054Z" fill="#DEECFF"/>
</svg>
