<svg width="26" height="26" viewBox="0 0 26 26" fill="none" xmlns="http://www.w3.org/2000/svg">
<path d="M26 6.46774C25.6664 6.98022 25.2876 7.46017 24.8683 7.90152C24.4469 8.3457 23.9891 8.75192 23.4998 9.11569C23.5155 9.33971 23.5237 9.56423 23.5242 9.78883C23.5242 10.8137 23.418 11.8261 23.2038 12.8278C22.9905 13.8259 22.6789 14.7992 22.2741 15.7329C21.7134 17.0483 20.9723 18.2749 20.0734 19.3754C19.2119 20.4278 18.2026 21.343 17.0788 22.0912C15.9509 22.8376 14.7218 23.4091 13.4312 23.7874C12.0845 24.1827 10.69 24.3805 9.2892 24.3749C7.93833 24.3766 6.5941 24.1813 5.29692 23.7946C3.99685 23.4064 2.7596 22.8241 1.625 22.0662C2.93459 22.2286 4.26254 22.1245 5.53285 21.7599C6.80316 21.3953 7.99088 20.7773 9.02804 19.9414C8.25214 19.9303 7.48966 19.7322 6.8022 19.363C6.11474 18.9939 5.52156 18.4642 5.07058 17.8166C4.76298 17.3814 4.52387 16.8994 4.36196 16.3882C4.5204 16.4132 4.6771 16.4346 4.83205 16.4507C5.42966 16.5107 6.03293 16.4568 6.61143 16.2918C6.04081 16.1764 5.49484 15.9575 4.9992 15.6454C4.51893 15.3427 4.09068 14.9609 3.7317 14.5152C2.99473 13.6 2.59424 12.4487 2.6 11.2619V11.203C3.29991 11.6083 4.05728 11.8243 4.87384 11.8493C4.19296 11.3737 3.63395 10.7367 3.2442 9.99239C3.05333 9.62528 2.90547 9.2363 2.80371 8.83357C2.59641 7.98131 2.6006 7.08936 2.81589 6.23919C2.92558 5.8053 3.09621 5.39284 3.32777 5.00181C3.96152 5.80709 4.66839 6.53023 5.44491 7.16767C6.98822 8.43699 8.7715 9.36417 10.6821 9.89061C11.6464 10.1556 12.6358 10.3131 13.6332 10.3602C13.5851 10.1697 13.5513 9.97571 13.5322 9.77991C13.5126 9.58354 13.5027 9.38628 13.5026 9.18889C13.5026 8.48004 13.6332 7.81403 13.8961 7.19266C14.4058 5.96486 15.3592 4.9871 16.5564 4.46436C17.1708 4.19467 17.8329 4.05791 18.5012 4.06262C19.1867 4.0592 19.8654 4.20168 20.4945 4.48105C21.1235 4.76042 21.6892 5.17061 22.1557 5.68567C23.2727 5.45952 24.3434 5.03793 25.321 4.43937C24.9586 5.62919 24.178 6.63846 23.1307 7.27123C24.121 7.1532 25.0882 6.88293 26 6.46952V6.46774Z" fill="#DEECFF"/>
</svg>
